<svg width="48" height="36" viewBox="0 0 48 36" fill="none" xmlns="http://www.w3.org/2000/svg">
<path d="M8.94622 14.5024C7.28579 14.5024 5.93547 16.0721 5.93547 18.0024C5.93547 19.9326 7.28579 21.5024 8.94622 21.5024C10.6067 21.5024 11.957 19.9326 11.957 18.0024C11.957 16.0721 10.6067 14.5024 8.94622 14.5024ZM8.94622 19.7524C8.11601 19.7524 7.44085 18.9675 7.44085 18.0024C7.44085 17.0373 8.11601 16.2524 8.94622 16.2524C9.77644 16.2524 10.4516 17.0373 10.4516 18.0024C10.4516 18.9675 9.77644 19.7524 8.94622 19.7524Z" fill="#7A3DE2"/>
<path d="M32.2796 0.500122C25.062 0.500122 18.9803 6.34775 17.56 14.5001H14.9677V13.6251C14.9677 10.2476 12.6043 7.50012 9.69893 7.50012C7.26398 7.50012 5.19936 9.39187 4.60474 12.0781C2.29398 12.7694 0.666672 15.1695 0.666672 18.0001C0.666672 20.8307 2.29398 23.2309 4.60474 23.9221C5.19936 26.6084 7.26398 28.5001 9.69893 28.5001C12.6043 28.5001 14.9677 25.7526 14.9677 22.3751V21.5001H17.56C18.9803 29.6525 25.062 35.5001 32.2796 35.5001C40.5802 35.5001 47.3333 27.6496 47.3333 18.0001C47.3333 8.35062 40.5802 0.500122 32.2796 0.500122ZM13.4624 19.7501V22.3751C13.4624 24.7875 11.7741 26.7501 9.69893 26.7501C7.83226 26.7501 6.27044 25.1935 5.98517 23.048L5.90087 22.4145L5.35592 22.3165C3.51108 21.9857 2.17205 20.1701 2.17205 18.0001C2.17205 15.8301 3.51108 14.0145 5.35667 13.6829L5.90162 13.5849L5.98592 12.9514C6.27044 10.8067 7.83226 9.25012 9.69893 9.25012C11.7741 9.25012 13.4624 11.2127 13.4624 13.6251V16.2501H31.5269V19.7501H13.4624ZM32.2796 33.7501C25.8877 33.7501 20.4842 28.655 19.0955 21.5001H31.5269V25.0001H33.0323V21.5001V18.8751H33.4086C35.6915 18.8751 37.5484 21.0337 37.5484 23.6876C37.5484 26.3415 35.6915 28.5001 33.4086 28.5001H31.1505C28.8676 28.5001 27.0108 26.3415 27.0108 23.6876H25.5054C25.5054 27.3066 28.0374 30.2501 31.1505 30.2501H31.5269V32.0001H33.0323V30.2501H33.4086C36.5217 30.2501 39.0538 27.3066 39.0538 23.6876C39.0538 20.0686 36.5217 17.1251 33.4086 17.1251H33.0323V14.5001V11.0001H31.5269V14.5001H27.4729C27.1756 13.8255 27.0108 13.0791 27.0108 12.3126C27.0108 9.65875 28.8676 7.50012 31.1505 7.50012H33.4086C35.6915 7.50012 37.5484 9.65875 37.5484 12.3126H39.0538C39.0538 8.69362 36.5217 5.75012 33.4086 5.75012H33.0323V4.00012H31.5269V5.75012H31.1505C28.0374 5.75012 25.5054 8.69362 25.5054 12.3126C25.5054 13.0642 25.6281 13.8001 25.8411 14.5001H19.0955C20.4842 7.34525 25.8877 2.25012 32.2796 2.25012C39.75 2.25012 45.828 9.31575 45.828 18.0001C45.828 26.6845 39.75 33.7501 32.2796 33.7501Z" fill="#7A3DE2"/>
</svg>
