<svg width="48" height="48" viewBox="0 0 48 48" fill="none" xmlns="http://www.w3.org/2000/svg">
<path d="M47.3334 0.666687H0.666748V47.3334H47.3334V0.666687Z" fill="white" stroke="white" stroke-width="0.1" stroke-miterlimit="10"/>
<path d="M24 0.666687V47.3334" stroke="white" stroke-width="0.1" stroke-miterlimit="10"/>
<path d="M47.3334 24H0.666748" stroke="white" stroke-width="0.1" stroke-miterlimit="10"/>
<path d="M0.666748 0.666687L47.3334 47.3334" stroke="white" stroke-width="0.1" stroke-miterlimit="10"/>
<path d="M41.1111 6.88989H6.88892V41.1121H41.1111V6.88989Z" stroke="white" stroke-width="0.1" stroke-miterlimit="10"/>
<path d="M47.3334 0.666687L0.666748 47.3334" stroke="white" stroke-width="0.1" stroke-miterlimit="10"/>
<path d="M0.666748 24L24.0001 0.666687" stroke="white" stroke-width="0.1" stroke-miterlimit="10"/>
<path d="M24 0.666687L47.3333 24" stroke="white" stroke-width="0.1" stroke-miterlimit="10"/>
<path d="M47.3333 24L24 47.3333" stroke="white" stroke-width="0.1" stroke-miterlimit="10"/>
<path d="M24.0001 47.3333L0.666748 24" stroke="white" stroke-width="0.1" stroke-miterlimit="10"/>
<path d="M24.0001 40.3313C33.0207 40.3313 40.3334 33.0187 40.3334 23.998C40.3334 14.9774 33.0207 7.66467 24.0001 7.66467C14.9794 7.66467 7.66675 14.9774 7.66675 23.998C7.66675 33.0187 14.9794 40.3313 24.0001 40.3313Z" stroke="white" stroke-width="0.1" stroke-miterlimit="10"/>
<path d="M25.5557 19.3313C21.6668 19.3313 18.5557 22.4424 18.5557 26.3313C18.5557 30.2202 21.6668 33.3313 25.5557 33.3313C29.4446 33.3313 32.5557 30.2202 32.5557 26.3313C32.5557 22.4424 29.4446 19.3313 25.5557 19.3313ZM25.5557 31.7757C22.5223 31.7757 20.1112 29.3646 20.1112 26.3313C20.1112 23.298 22.5223 20.8869 25.5557 20.8869C28.589 20.8869 31.0001 23.298 31.0001 26.3313C31.0001 29.3646 28.589 31.7757 25.5557 31.7757Z" fill="#7A3DE2"/>
<path d="M34.1114 17.3113L38.0002 13.4224L41.8114 17.3113L42.978 16.1447L39.0891 12.3336L42.978 8.52244L41.8114 7.35577L38.0002 11.2447L34.1891 7.35577L33.0225 8.44466L36.9114 12.3336L33.0225 16.1447L34.1114 17.3113Z" fill="#7A3DE2"/>
<path d="M44.2223 37.2243C44.2223 37.6909 43.9112 38.002 43.4445 38.002H6.11119C5.64453 38.002 5.33342 37.6909 5.33342 37.2243V15.4465C5.33342 14.9798 5.64453 14.6687 6.11119 14.6687H27.3445C27.2667 14.1243 27.189 13.6576 27.1112 13.1132H6.11119C4.78897 13.1132 3.77786 14.1243 3.77786 15.4465V17.7798H3.00008C1.67786 17.7798 0.666748 18.7909 0.666748 20.1132V41.8909C0.666748 43.2132 1.67786 44.2243 3.00008 44.2243H40.3334C41.6556 44.2243 42.6667 43.2132 42.6667 41.8909V39.5576H43.4445C44.7668 39.5576 45.7779 38.5465 45.7779 37.2243V19.9576C45.3112 20.4243 44.7668 20.8909 44.2223 21.2798V37.2243ZM41.1112 41.8909C41.1112 42.3576 40.8001 42.6687 40.3334 42.6687H3.00008C2.53341 42.6687 2.2223 42.3576 2.2223 41.8909V20.1132C2.2223 19.6465 2.53341 19.3354 3.00008 19.3354H3.77786V37.2243C3.77786 38.5465 4.78897 39.5576 6.11119 39.5576H41.1112V41.8909Z" fill="#7A3DE2"/>
<path d="M12.3334 17.0811C12.3334 19.6477 10.2334 21.7477 7.66669 21.7477H6.88892V31.0811H7.66669C10.2334 31.0811 12.3334 33.1811 12.3334 35.7477V36.5255H38V35.7477C38 33.1811 40.1 31.0811 42.6667 31.0811H43.4445V21.7477C42.5889 22.2922 41.6556 22.6033 40.6445 22.9144C41.0334 23.07 41.4222 23.1477 41.8889 23.2255V29.5255C39.0889 29.9144 36.8334 32.0922 36.5222 34.8922H13.8111C13.4222 32.0922 11.2445 29.8366 8.44447 29.5255V23.2255C11.2445 22.8366 13.5 20.6588 13.8111 17.8588H28.5889C28.2778 17.3922 28.0445 16.8477 27.8111 16.3033H12.3334V17.0811Z" fill="#7A3DE2"/>
<path d="M38.0001 21.6677C43.1334 21.6677 47.3334 17.4677 47.3334 12.3344C47.3334 7.20104 43.1334 3.00104 38.0001 3.00104C32.8667 3.00104 28.6667 7.20104 28.6667 12.3344C28.6667 17.4677 32.8667 21.6677 38.0001 21.6677ZM38.0001 4.55659C42.2779 4.55659 45.7779 8.05659 45.7779 12.3344C45.7779 16.6121 42.2779 20.1121 38.0001 20.1121C33.7223 20.1121 30.2223 16.6121 30.2223 12.3344C30.2223 8.05659 33.7223 4.55659 38.0001 4.55659Z" fill="#7A3DE2"/>
</svg>
