<svg width="48" height="48" viewBox="0 0 48 48" fill="none" xmlns="http://www.w3.org/2000/svg">
<path fill-rule="evenodd" clip-rule="evenodd" d="M12.7235 5.98411C16.4472 5.98411 19.4651 9.00173 19.4651 12.7254C19.4651 16.4489 16.4473 19.4667 12.7235 19.4667C8.99986 19.4667 5.98197 16.4491 5.98197 12.7254C5.98197 9.00188 8.9997 5.98411 12.7235 5.98411ZM26.7101 26.7782C26.7101 27.2115 26.3591 27.5625 25.9258 27.5625C25.4924 27.5625 25.1414 27.2115 25.1414 26.7782V25.4233C25.1414 23.9919 26.3022 22.8312 27.7337 22.8312H36.5283C37.093 22.8312 37.5519 22.3724 37.5519 21.8076V20.4527C37.5519 20.0194 37.9029 19.6684 38.3362 19.6684C38.7696 19.6684 39.1206 20.0194 39.1206 20.4527V21.8076C39.1206 23.239 37.9598 24.3998 36.5283 24.3998H27.7337C27.169 24.3998 26.7101 24.8586 26.7101 25.4233V26.7782ZM12.8274 29.737C12.3941 29.737 12.0431 29.386 12.0431 28.9527C12.0431 28.5194 12.3941 28.1684 12.8274 28.1684H15.7883C16.2216 28.1684 16.5726 28.5194 16.5726 28.9527C16.5726 29.386 16.2216 29.737 15.7883 29.737H12.8274ZM18.7492 29.737C18.3159 29.737 17.9649 29.386 17.9649 28.9527C17.9649 28.5194 18.3159 28.1684 18.7492 28.1684H21.7101C22.1435 28.1684 22.4944 28.5194 22.4944 28.9527C22.4944 29.386 22.1435 29.737 21.7101 29.737H18.7492ZM24.6711 29.737C24.2377 29.737 23.8867 29.386 23.8867 28.9527C23.8867 28.5194 24.2377 28.1684 24.6711 28.1684H27.6319C28.0653 28.1684 28.4163 28.5194 28.4163 28.9527C28.4163 29.386 28.0653 29.737 27.6319 29.737H24.6711ZM30.5949 29.737C30.1616 29.737 29.8106 29.386 29.8106 28.9527C29.8106 28.5194 30.1616 28.1684 30.5949 28.1684H33.5558C33.9891 28.1684 34.3401 28.5194 34.3401 28.9527C34.3401 29.386 33.9891 29.737 33.5558 29.737H30.5949ZM36.5167 29.737C36.0834 29.737 35.7324 29.386 35.7324 28.9527C35.7324 28.5194 36.0834 28.1684 36.5167 28.1684H39.4776C39.9109 28.1684 40.2619 28.5194 40.2619 28.9527C40.2619 29.386 39.9109 29.737 39.4776 29.737H36.5167ZM35.8814 12.5901H40.7914C41.2247 12.5901 41.5757 12.9411 41.5757 13.3744V18.2783C41.5757 18.7116 41.2247 19.0626 40.7914 19.0626H35.8814C35.4481 19.0626 35.0971 18.7116 35.0971 18.2783V13.3744C35.0971 12.9411 35.4481 12.5901 35.8814 12.5901ZM40.0071 14.1587H36.6658V17.494H40.0071V14.1587ZM20.0379 7.0726L20.9262 6.18439C20.4379 5.5726 19.8732 5.00991 19.2634 4.52165L18.2986 5.48637C18.0339 5.75303 17.6241 5.78832 17.3221 5.59225C16.4593 5.03734 15.5181 4.64521 14.5201 4.42951C14.1534 4.35108 13.9005 4.02559 13.9024 3.66287V2.29815C13.1239 2.21187 12.3318 2.21187 11.5514 2.29815V3.66483C11.5514 4.05307 11.269 4.37465 10.9003 4.4374C9.97088 4.61975 8.92772 5.07659 8.12772 5.58839C7.81202 5.79034 7.40613 5.73741 7.15123 5.4825H7.14927L6.18452 4.51779C5.57471 5.00602 5.00798 5.5727 4.52172 6.17857L5.48842 7.14719C5.76687 7.42563 5.79236 7.85897 5.56686 8.16677C5.29822 8.58834 5.07076 9.02753 4.88447 9.47854C4.69035 9.94716 4.53936 10.4315 4.43152 10.9275C4.35308 11.2942 4.02758 11.5472 3.66485 11.5452H2.30007C2.21379 12.3236 2.21379 13.1177 2.30007 13.8942H3.66485C4.0531 13.8942 4.37469 14.1766 4.43744 14.5452C4.61784 15.4667 5.08057 16.5177 5.59239 17.3158C5.80024 17.6412 5.73945 18.0628 5.46297 18.3158L4.51981 19.2589C5.0061 19.8667 5.57476 20.4334 6.18457 20.9216L7.14931 19.9569C7.42776 19.6785 7.86112 19.653 8.16893 19.8785C8.49835 20.104 9.13564 20.4177 9.47487 20.5569C9.93959 20.7491 10.4278 20.902 10.9318 21.0099C11.2984 21.0883 11.5514 21.4138 11.5494 21.7765V23.1432C12.3279 23.2295 13.1201 23.2295 13.9005 23.1432V21.7785C13.9005 21.3902 14.1829 21.0686 14.5515 21.0059C15.4731 20.8255 16.5241 20.3628 17.3222 19.851C17.6379 19.649 18.0438 19.702 18.2987 19.9569V19.9549L19.2654 20.9235C19.8713 20.4373 20.4379 19.8706 20.9262 19.2608L19.9615 18.2961C19.683 18.0177 19.6575 17.5843 19.883 17.2765C20.1497 16.8569 20.3772 16.4197 20.5615 15.9706C20.7537 15.5059 20.9066 15.0177 21.0145 14.5138C21.0929 14.1471 21.4184 13.8942 21.7811 13.8961H23.1479C23.2341 13.1177 23.2341 12.3256 23.1479 11.5471H21.7811C21.3929 11.5471 21.0713 11.2648 21.0085 10.8961C20.8281 9.97263 20.3517 8.89613 19.8575 8.12362C19.6555 7.80793 19.7085 7.40205 19.9634 7.14716L19.9614 7.1452L20.0399 7.06676L20.0379 7.0726ZM22.4909 6.83927C22.8007 6.52947 22.8302 6.11184 22.5733 5.77066C22.1733 5.20595 21.7301 4.68045 21.2497 4.19812C20.7576 3.70597 20.2183 3.25304 19.6399 2.84715C19.3144 2.61774 18.8713 2.67264 18.6104 2.96088L17.6221 3.94913C16.9398 3.56678 16.2162 3.26677 15.4672 3.05304V1.6197C15.4672 1.22166 15.1711 0.892258 14.7867 0.843216C14.1024 0.725568 13.4122 0.666748 12.7239 0.666748C12.0239 0.666748 11.3238 0.72753 10.6297 0.849099C10.2493 0.915764 9.98065 1.24714 9.98065 1.62166V3.05696C9.23551 3.26873 8.50609 3.57066 7.82762 3.94909L6.81388 2.93539C6.52759 2.64912 6.07858 2.63147 5.77072 2.87656C5.206 3.27656 4.68048 3.7197 4.19813 4.20007C3.71184 4.68635 3.25888 5.22753 2.84711 5.81377C2.62749 6.12946 2.67259 6.55104 2.93534 6.81377L2.93338 6.81573L3.94712 7.83139C3.56476 8.51375 3.26669 9.23728 3.053 9.98434H1.61961C1.22156 9.98434 0.892144 10.2804 0.843101 10.6647C0.725448 11.3471 0.666626 12.0393 0.666626 12.7275C0.666626 13.4275 0.72741 14.1275 0.848984 14.8216C0.915652 15.202 1.24704 15.4706 1.62158 15.4706H3.05497C3.2687 16.2197 3.56869 16.9412 3.9511 17.6255L2.9354 18.6412C2.65304 18.9236 2.63343 19.3686 2.87462 19.6745C3.27855 20.2471 3.72366 20.7745 4.20014 21.2529C4.4472 21.5 4.70603 21.7373 4.97469 21.9628V35.3374C4.97469 36.5472 5.97081 37.5413 7.17671 37.5413H20.2381C20.0107 39.0139 19.5107 40.3785 18.6381 41.5687H15.4419C13.4712 41.5687 11.8575 43.1844 11.8575 45.1511V46.5491C11.8575 46.9824 12.2085 47.3334 12.6418 47.3334H39.6642C40.0976 47.3334 40.4486 46.9824 40.4486 46.5491V45.1511C40.4486 43.1805 38.8328 41.5687 36.8661 41.5687H33.6699C32.7974 40.3766 32.2973 39.0139 32.0699 37.5413H45.1293C46.3431 37.5413 47.3333 36.5511 47.3333 35.3374V9.04337C47.3333 7.83556 46.3411 6.83947 45.1293 6.83947L22.4909 6.83927ZM6.54162 22.6921V35.3354C6.54162 35.6844 6.82399 35.9707 7.17497 35.9707H45.1289C45.476 35.9707 45.7642 35.6825 45.7642 35.3354V9.04337C45.7642 8.69043 45.478 8.40809 45.1289 8.40809H21.7986L22.179 9.32181H44.0662C44.4995 9.32181 44.8505 9.67279 44.8505 10.1061V32.7374C44.8505 33.1707 44.4995 33.5217 44.0662 33.5217H8.23957C7.80622 33.5217 7.45523 33.1707 7.45523 32.7374V21.8745L6.81209 22.5176C6.73366 22.5961 6.6415 22.6549 6.5415 22.6941L6.54162 22.6921ZM12.724 7.55306C9.86702 7.55306 7.5511 9.86874 7.5511 12.7257C7.5511 15.5826 9.86687 17.8984 12.724 17.8984C15.5809 17.8984 17.8968 15.5827 17.8968 12.7257C17.8968 9.86889 15.5811 7.55306 12.724 7.55306ZM24.6419 10.8903C24.8537 12.2804 24.8164 13.4059 24.6046 14.7883C24.5537 15.1726 24.2242 15.4687 23.8281 15.4687H22.3928C22.181 16.2138 21.8791 16.9432 21.5006 17.6216L22.5144 18.6353C22.7791 18.9 22.8242 19.3236 22.6006 19.6393C22.1948 20.2196 21.7418 20.7569 21.2496 21.249C20.779 21.7196 20.2594 22.1569 19.6966 22.5569C19.3888 22.8196 18.926 22.8059 18.6338 22.5137L17.6201 21.4981C16.9377 21.8804 16.2141 22.1804 15.4671 22.3922V23.8255C15.4671 24.2 15.1984 24.5314 14.818 24.5981C14.1239 24.7196 13.4239 24.7804 12.7238 24.7804C12.0355 24.7804 11.3434 24.7216 10.661 24.604C10.2766 24.553 9.98055 24.2236 9.98055 23.8275V22.3922C9.65897 22.3 9.33937 22.1922 9.02368 22.0667V31.9507H43.2816V10.8901L24.6419 10.8903ZM33.2854 43.135H36.8659C37.9777 43.135 38.8797 44.0409 38.8797 45.1488V45.7625L13.424 45.7645V45.1507C13.424 44.037 14.3319 43.137 15.4397 43.137H33.2855L33.2854 43.135ZM30.4854 37.5392C30.6814 38.9726 31.1011 40.3314 31.807 41.5666H20.4989C21.2048 40.3314 21.6245 38.9725 21.8205 37.5392H30.4854Z" fill="#7A3DE2"/>
</svg>
