<svg width="48" height="48" viewBox="0 0 48 48" fill="none" xmlns="http://www.w3.org/2000/svg">
<path d="M25.6257 15.1389C27.9923 15.1389 30.2235 16.2704 31.6634 18.1994C33.1033 20.1284 33.5883 22.6368 32.9755 24.985C32.3627 27.3333 30.7198 29.2544 28.5337 30.1833C26.3475 31.114 23.8644 30.9461 21.8155 29.7296C19.7666 28.5131 18.3831 26.3871 18.0749 23.9771C17.7666 21.5671 18.5673 19.1478 20.2403 17.4273C21.667 15.9598 23.6052 15.135 25.6257 15.1389ZM1.67435 29.1886H4.67442C4.93758 29.1866 5.18946 29.2948 5.37366 29.4879H5.37554C5.55036 29.6713 5.65938 29.9107 5.68006 30.1656L5.74397 30.8839H8.4132C8.9715 30.8839 9.42451 31.3474 9.42639 31.9209V32.2414L14.3814 32.2105V32.2086C14.9585 32.197 15.5281 32.3495 16.0262 32.6508L19.8007 34.8733H19.7988C19.9379 34.9544 20.0695 35.0471 20.1973 35.1475C20.2481 35.1842 20.2932 35.2247 20.3364 35.2653H28.8967C30.1787 35.2691 31.2332 36.3061 31.2878 37.623L39.2542 32.896C40.3821 32.2317 41.8181 32.6102 42.4967 33.7495C42.5193 33.7842 42.5381 33.8209 42.555 33.8596C43.1678 35.0297 42.7655 36.4876 41.6471 37.1519C41.6358 37.1596 41.6246 37.1654 41.6114 37.1692L24.6203 47.247C24.4756 47.332 24.3064 47.3552 24.1447 47.3127H24.141L12.3682 44.227C12.2854 44.2038 12.2009 44.1865 12.1144 44.1749C12.0279 44.1652 11.9396 44.1594 11.8531 44.1613L9.42448 44.1884V44.5186C9.4226 44.7657 9.33614 45.0032 9.182 45.1906C9.16508 45.2137 9.14628 45.233 9.12749 45.2523C8.93763 45.4474 8.68011 45.5555 8.41318 45.5555H7.04471L7.09922 46.1541V46.156C7.10298 46.185 7.10486 46.2139 7.10486 46.2429C7.10298 46.5094 6.99771 46.7643 6.81162 46.9496C6.64244 47.1196 6.42252 47.2238 6.18754 47.2451C6.14054 47.2509 6.11046 47.2528 6.09543 47.2528H1.6743C1.4055 47.2528 1.14987 47.1427 0.959989 46.9496C0.941192 46.9303 0.924273 46.9091 0.909235 46.8917V46.8898C0.753217 46.7025 0.666748 46.463 0.666748 46.2139V30.2255C0.666748 29.9513 0.773895 29.6868 0.961865 29.4918V29.4898C1.15172 29.2948 1.40736 29.1867 1.6743 29.1867L1.67435 29.1886ZM5.86051 32.2028L6.92822 44.244H8.14438L8.1425 32.1988L5.86051 32.2028ZM4.42813 30.5016H1.94691V45.9394H5.79848L4.42813 30.5016ZM5.82855 46.2775V46.2582C5.82855 46.2736 5.83419 46.2949 5.82855 46.2775ZM9.4245 33.5486V37.4472L9.47901 42.8808L11.8419 42.8538L11.8437 42.8557C11.9847 42.8519 12.1257 42.8596 12.2667 42.8731C12.4077 42.8924 12.5486 42.9195 12.6859 42.9561L24.2104 45.9742L40.9719 36.0359C40.9832 36.0281 40.9945 36.0204 41.0058 36.0146C41.5246 35.7018 41.7126 35.024 41.4306 34.4776L41.4118 34.4505H41.4137C41.2652 34.1879 41.0227 33.9987 40.7389 33.9195C40.4531 33.8404 40.1486 33.8809 39.8911 34.0315L30.3006 39.7182C30.2912 39.726 30.2799 39.7317 30.2705 39.7395L30.2555 39.7472L30.2536 39.7491C30.2442 39.7549 30.2329 39.7626 30.2216 39.7665C29.8457 40.0272 29.404 40.1701 28.9509 40.1797H28.9077C28.8795 40.1817 28.8382 40.1855 28.7836 40.1875C28.7367 40.1875 28.6821 40.1894 28.6201 40.1894L26.6859 40.1797H17.731C17.3758 40.1797 17.0901 39.8862 17.0901 39.5213C17.0901 39.1583 17.3758 38.8628 17.731 38.8628H28.8966C29.5112 38.8628 30.0075 38.3531 30.0075 37.7216C30.0075 37.0922 29.5113 36.5805 28.8966 36.5805H17.731C17.3758 36.5805 17.0901 36.285 17.0901 35.922C17.0901 35.559 17.3758 35.2636 17.731 35.2636H17.8889L15.387 33.7902C15.2366 33.6995 15.0731 33.63 14.9039 33.5817C14.7347 33.5354 14.5581 33.5141 14.3833 33.518L9.4245 33.5486ZM42.476 24.898H37.7504C37.397 24.898 37.1094 24.6025 37.1094 24.2395V21.6887C37.1094 21.3257 37.397 21.0303 37.7504 21.0303H42.476V19.3948C42.4741 19.1206 42.6395 18.8753 42.8877 18.7788C43.1358 18.6803 43.4178 18.7518 43.5945 18.9564L47.1397 22.4939V22.4958C47.2618 22.6156 47.3314 22.7816 47.3333 22.9554C47.337 23.1292 47.2712 23.2972 47.1528 23.4227C45.978 24.6295 44.7561 25.8171 43.5625 27.0066C43.3783 27.19 43.1058 27.2421 42.8689 27.1398C42.634 27.0375 42.4798 26.8019 42.4779 26.5373L42.476 24.898ZM38.3913 23.583H43.117C43.4704 23.583 43.7561 23.8765 43.758 24.2395V24.981L45.7768 22.9651L43.758 20.9472V21.6887C43.758 22.0517 43.4704 22.3472 43.117 22.3472H38.3913V23.583ZM38.8707 12.0939L35.5304 15.5252C35.4101 15.6488 35.2466 15.7183 35.0774 15.7183C34.9063 15.7183 34.7428 15.6488 34.6244 15.5252L32.8687 13.7217C32.6187 13.4649 32.6187 13.0478 32.8687 12.791L36.209 9.35583L35.0811 8.19724V8.19917C34.8913 8.00414 34.8386 7.7087 34.9514 7.45961C35.0623 7.20859 35.3142 7.05797 35.5811 7.07921L40.5155 7.00777C40.6847 7.0039 40.8482 7.07149 40.9685 7.19314C41.0907 7.31479 41.1584 7.48085 41.1602 7.65463C41.1584 9.36158 41.1132 11.084 41.0907 12.7931V12.7912C41.0888 13.0557 40.9328 13.2932 40.6941 13.3937C40.4553 13.4941 40.1828 13.4362 40.0004 13.2508H39.9986L38.8707 12.0939ZM35.0774 14.1311L38.4177 10.6959L38.4195 10.6978C38.538 10.5723 38.7015 10.5028 38.8707 10.5028C39.0417 10.5028 39.2053 10.5723 39.3237 10.6978L39.835 11.223L39.8745 8.3266L37.0567 8.36908L37.568 8.8943V8.89237C37.818 9.14919 37.818 9.56629 37.568 9.82309L34.2277 13.2582L35.0774 14.1311ZM8.77823 21.0323H13.502C13.673 21.0323 13.8366 21.1018 13.9569 21.2254C14.0772 21.349 14.143 21.517 14.143 21.6908V24.2396C14.143 24.4153 14.0772 24.5833 13.9569 24.7069C13.8366 24.8305 13.673 24.9 13.502 24.8981H8.77823V26.5374C8.77823 26.9005 8.49251 27.1939 8.13913 27.1959C7.95492 27.1959 7.78011 27.1167 7.65792 26.9738L4.11274 23.4363C3.99244 23.3147 3.92289 23.1486 3.92101 22.9748C3.91913 22.801 3.98492 22.633 4.10334 22.5095C5.27817 21.3026 6.49814 20.1151 7.68986 18.9237V18.9218C7.87407 18.7383 8.14851 18.6862 8.38348 18.7885C8.62032 18.8928 8.77446 19.1303 8.77446 19.3949L8.77823 21.0323ZM12.861 22.3492H8.13913C7.78574 22.3473 7.49816 22.0538 7.49816 21.6908V20.9493L5.47746 22.9671L7.49816 24.983V24.2396C7.49816 23.8766 7.78576 23.5831 8.13913 23.5831H12.8629L12.861 22.3492ZM15.0434 9.35989L18.3837 12.795V12.7931C18.504 12.9167 18.5735 13.0847 18.5735 13.2585C18.5735 13.4323 18.504 13.6003 18.3837 13.7238L16.628 15.5273C16.378 15.7841 15.9739 15.7841 15.722 15.5273L12.3817 12.0922L11.2539 13.2527C11.064 13.4458 10.7783 13.4979 10.5358 13.384C10.2914 13.2701 10.1429 13.0133 10.1617 12.741L10.0941 7.67416V7.67223C10.0922 7.49844 10.158 7.33045 10.2764 7.20687C10.3948 7.08135 10.5565 7.00991 10.7275 7.00991C12.3892 7.01184 14.0659 7.05818 15.7297 7.08135H15.7279C15.897 7.08328 16.0587 7.15473 16.1771 7.27831C16.2955 7.40382 16.3613 7.57182 16.3594 7.7456C16.3576 7.91552 16.2899 8.07965 16.1715 8.20131H16.1734L15.0434 9.35989ZM17.0246 13.2585L13.6862 9.82331C13.5659 9.69973 13.4983 9.53367 13.4983 9.35795C13.4983 9.18417 13.5659 9.01617 13.6862 8.89452L14.1975 8.3693L11.3779 8.32682L11.4174 11.2233L11.9287 10.698C12.049 10.5745 12.2125 10.503 12.3817 10.503C12.5528 10.503 12.7163 10.5745 12.8366 10.698L16.1806 14.1332L17.0246 13.2585ZM27.5098 5.66219V10.5147V10.5127C27.5098 10.6885 27.4421 10.8545 27.3218 10.9781C27.2034 11.1017 27.0398 11.1712 26.8688 11.1712H24.3876C24.2165 11.1712 24.053 11.1017 23.9327 10.9781C23.8124 10.8545 23.7447 10.6865 23.7447 10.5108V5.65833H22.1507C21.8838 5.65833 21.6469 5.48841 21.551 5.23352C21.4571 4.97864 21.5266 4.68897 21.7259 4.50746L25.1695 0.865675C25.2879 0.740161 25.4496 0.668716 25.6187 0.666788C25.7879 0.664857 25.9515 0.73244 26.0718 0.854093C27.2466 2.06094 28.4027 3.31415 29.5605 4.53834V4.54027C29.741 4.72757 29.7936 5.00949 29.694 5.25279C29.5944 5.49416 29.3613 5.65249 29.1056 5.65249V5.65443L27.5098 5.66219ZM26.2278 9.85238V4.9999C26.2278 4.82611 26.2936 4.65812 26.4139 4.53454C26.5342 4.41096 26.6977 4.34144 26.8669 4.34144H27.5906L25.6263 2.2676L23.662 4.34144H24.3838C24.553 4.34144 24.7165 4.41096 24.8368 4.53454C24.9571 4.65812 25.0248 4.82611 25.0248 4.9999V9.85238H26.2278ZM25.6263 11.8702C28.9816 11.8702 32.1452 13.4748 34.1884 16.211C36.2298 18.9452 36.9178 22.5022 36.0494 25.831C35.1791 29.1619 32.852 31.8865 29.7523 33.2053C26.6507 34.5242 23.1298 34.2867 20.2238 32.5623C17.3177 30.838 15.3573 27.8238 14.9194 24.406C14.4814 20.9882 15.6168 17.5551 17.989 15.1181C20.0116 13.0346 22.7597 11.8664 25.6263 11.8702ZM32.3555 16.0469C30.2633 13.8958 27.3158 12.8666 24.3799 13.2624C21.4438 13.6583 18.8556 15.4328 17.374 18.0667C15.8927 20.7005 15.6878 23.8923 16.8195 26.702C17.953 29.5135 20.2932 31.6221 23.1522 32.41C26.0131 33.1978 29.0658 32.5741 31.4156 30.7223C33.7652 28.8724 35.1412 26.003 35.1412 22.9619C35.145 20.3686 34.1432 17.8793 32.3555 16.0469ZM26.2672 27.2814C26.271 27.459 26.2071 27.6309 26.0849 27.7583C25.9646 27.8857 25.7992 27.9572 25.6262 27.9572C25.4533 27.9572 25.2879 27.8857 25.1676 27.7583C25.0454 27.6309 24.9815 27.459 24.9852 27.2814V26.6268C24.0867 26.3371 23.4758 25.4836 23.4758 24.5163C23.4758 24.1513 23.7634 23.8578 24.1168 23.8578C24.4702 23.8578 24.7578 24.1513 24.7578 24.5163C24.7578 25.0086 25.1469 25.4084 25.6262 25.4103C25.9777 25.4103 26.2935 25.1921 26.4289 24.858C26.5623 24.524 26.489 24.1397 26.2409 23.8848C26.0774 23.7168 25.8574 23.6241 25.6263 23.6241C24.5323 23.6241 23.6131 22.7803 23.4909 21.6623C23.3668 20.5442 24.0811 19.5112 25.1488 19.2621V18.6596C25.1432 18.4819 25.209 18.3101 25.3293 18.1826C25.4496 18.0552 25.615 17.9838 25.7879 17.9838C25.9608 17.9838 26.1263 18.0552 26.2466 18.1826C26.3669 18.3101 26.4327 18.4819 26.427 18.6596V19.3663V19.3644C27.2409 19.7023 27.7748 20.5114 27.7767 21.4131C27.7767 21.7781 27.4891 22.0716 27.1357 22.0716C26.7823 22.0716 26.4947 21.778 26.4947 21.4131C26.4947 21.1775 26.4045 20.9497 26.241 20.7836C26.0774 20.6157 25.8575 20.521 25.6263 20.521C25.3932 20.5152 25.1658 20.6079 24.9985 20.7759C24.8312 20.9439 24.7372 21.1737 24.7372 21.4151C24.7372 21.6545 24.8312 21.8843 24.9985 22.0523C25.1658 22.2203 25.3932 22.313 25.6263 22.3072C26.6883 22.3072 27.5906 23.1047 27.7504 24.1841C27.9102 25.2635 27.2805 26.3004 26.2673 26.6248L26.2672 27.2814ZM30.1057 18.3603C27.9684 16.1629 24.617 15.823 22.1036 17.5474C19.5885 19.2717 18.6092 22.5816 19.7671 25.4526C20.9231 28.322 23.8931 29.9537 26.8572 29.3473C29.8235 28.741 31.9605 26.0686 31.9605 22.9617C31.9605 21.2354 31.2937 19.5807 30.1057 18.3603Z" fill="#7A3DE2"/>
</svg>
