<svg width="48" height="48" viewBox="0 0 48 48" fill="none" xmlns="http://www.w3.org/2000/svg">
<path d="M14.738 18.0054C14.3458 17.8066 13.8844 18.0004 13.7068 18.4357L10.0648 27.3443C9.8872 27.7792 10.0607 28.2918 10.4525 28.4889C10.8351 28.6851 11.3056 28.4982 11.4837 28.0587L15.1256 19.1501C15.3033 18.7152 15.1298 18.2026 14.738 18.0054Z" fill="#7A3DE2"/>
<path d="M17.3003 22.0925C13.7484 20.6211 12.5769 26.7779 16.3372 27.0488C18.8164 27.057 19.5654 23.2187 17.3003 22.0925ZM16.6087 25.2641C15.644 25.6468 15.1084 24.0617 16.0603 23.6454C17.0234 23.2616 17.5611 24.8454 16.6087 25.2641Z" fill="#7A3DE2"/>
<path d="M10.9846 23.102C11.8748 21.0887 9.91122 18.7431 8.0342 19.6019C6.82801 20.1052 6.21519 21.6036 6.66862 22.9424C7.33736 25.0766 10.1899 25.1808 10.9846 23.102ZM9.56573 22.3872C9.14216 23.4152 7.7287 22.7033 8.14689 21.6728C8.56832 20.6475 9.98254 21.3521 9.56573 22.3872Z" fill="#7A3DE2"/>
<path d="M21.9875 23.9455L19.2471 15.8513C18.6427 14.0662 16.843 13.1606 15.234 13.8298L5.02448 18.0882C3.44445 18.7055 2.58148 20.8156 3.20319 22.5421C3.20314 22.5421 5.94352 30.6363 5.94352 30.6363C6.54835 32.4214 8.34839 33.3279 9.95671 32.6579L13.1524 31.325L15.3542 33.591C15.5708 33.8145 15.8841 33.8809 16.1576 33.7662C16.4341 33.6509 16.6277 33.3727 16.6585 33.0468L16.9708 29.7324L20.1662 28.3995C21.7465 27.7823 22.609 25.6719 21.9875 23.9455ZM20.4891 25.8763C20.3172 26.2973 20.0079 26.6181 19.6184 26.7807L15.9723 28.3015C15.6957 28.4168 15.5021 28.695 15.4713 29.021L15.2708 31.1472L13.8584 29.6935C13.642 29.471 13.3301 29.4026 13.055 29.5183L9.40893 31.0391C8.60439 31.3735 7.70475 30.9209 7.40195 30.0283L4.66157 21.9341C4.35132 21.071 4.78221 20.0157 5.57229 19.707C5.57225 19.707 15.7817 15.4485 15.7817 15.4485C16.587 15.1158 17.4863 15.5668 17.7887 16.4593L20.5291 24.5535C20.6755 24.9859 20.6611 25.4558 20.4891 25.8763Z" fill="#7A3DE2"/>
<path d="M4.56189 36.0903H16.7228C17.153 36.0903 17.5018 35.7031 17.5018 35.2256C17.5018 34.7481 17.153 34.3609 16.7228 34.3609H4.56189C3.2731 34.3609 2.22473 33.1973 2.22473 31.7668V12.7436H39.6193V14.94C39.6354 16.0737 41.1602 16.0785 41.1774 14.9399C41.1774 14.94 41.1774 7.55551 41.1774 7.55551C41.1774 5.1717 39.4298 3.23206 37.2821 3.23206H31.0497C30.9686 -0.18949 26.4555 -0.18706 26.3754 3.23206H23.2592C23.178 -0.18949 18.665 -0.18706 18.5848 3.23206H15.4686C15.3875 -0.18949 10.8745 -0.18706 10.7943 3.23206H4.56189C2.41417 3.23206 0.666626 5.1717 0.666626 7.55551V31.7668C0.666626 34.1506 2.41417 36.0903 4.56189 36.0903ZM28.7125 2.36737C29.142 2.36737 29.4916 2.75538 29.4916 3.23206H27.9335C27.9335 2.75538 28.2831 2.36737 28.7125 2.36737ZM20.922 2.36737C21.3515 2.36737 21.701 2.75538 21.701 3.23206H20.1429C20.1429 2.75538 20.4925 2.36737 20.922 2.36737ZM13.1315 2.36737C13.5609 2.36737 13.9105 2.75538 13.9105 3.23206H12.3524C12.3524 2.75538 12.702 2.36737 13.1315 2.36737ZM2.22473 7.55551C2.22473 6.12505 3.2731 4.96144 4.56189 4.96144H13.9105V6.69082C13.9105 7.1675 13.5609 7.55551 13.1315 7.55551C12.702 7.55551 12.3524 7.1675 12.3524 6.69082C12.3524 6.2133 12.0036 5.82613 11.5734 5.82613C11.1431 5.82613 10.7943 6.2133 10.7943 6.69082C10.7943 8.12128 11.8427 9.28489 13.1315 9.28489C14.4203 9.28489 15.4686 8.12128 15.4686 6.69082V4.96144H21.701V6.69082C21.701 7.1675 21.3515 7.55551 20.922 7.55551C20.4925 7.55551 20.1429 7.1675 20.1429 6.69082C20.1429 6.2133 19.7941 5.82613 19.3639 5.82613C18.9337 5.82613 18.5848 6.2133 18.5848 6.69082C18.5848 8.12128 19.6332 9.28489 20.922 9.28489C22.2108 9.28489 23.2592 8.12128 23.2592 6.69082V4.96144H29.4916V6.69082C29.4916 7.1675 29.142 7.55551 28.7125 7.55551C28.2831 7.55551 27.9335 7.1675 27.9335 6.69082C27.9335 6.2133 27.5847 5.82613 27.1544 5.82613C26.7242 5.82613 26.3754 6.2133 26.3754 6.69082C26.3754 8.12128 27.4237 9.28489 28.7125 9.28489C30.0013 9.28489 31.0497 8.12128 31.0497 6.69082V4.96144H37.2821C38.5709 4.96144 39.6193 6.12505 39.6193 7.55551V11.0143H2.22473V7.55551Z" fill="#7A3DE2"/>
<path d="M21.8269 19.6502C21.1339 20.4826 22.2605 21.6536 22.962 20.8349C31.0766 11.1694 45.8758 17.6922 45.8516 30.9044C45.1243 50.4051 20.0888 50.4003 19.3638 30.9042C19.3506 29.7684 17.8203 29.7687 17.8057 30.9043C17.8057 39.9632 24.4459 47.3334 32.6077 47.3334C52.2433 46.4314 52.2402 15.3752 32.6077 14.4752C28.5413 14.4752 24.6118 16.3616 21.8269 19.6502Z" fill="#7A3DE2"/>
<path d="M26.6999 33.4656C26.3743 33.5272 26.1194 33.8101 26.0639 34.1715L25.6074 37.1236C25.5042 37.6909 25.9974 38.2357 26.5067 38.1221C26.5067 38.1221 29.1664 37.6159 29.1664 37.6159C29.492 37.5538 29.7469 37.271 29.8028 36.9095L30.217 34.2285L31.2876 33.04C34.2672 35.0748 36.6173 29.9305 33.3865 28.4676V26.5566L34.8016 24.3357C34.9922 24.0367 34.9922 23.6365 34.8016 23.3375L33.2435 20.8917C32.9514 20.4332 32.2636 20.4332 31.9715 20.8917L30.4134 23.3375C30.2228 23.6365 30.2228 24.0367 30.4134 24.3357L31.8284 26.5566V28.4676C30.7166 28.8782 29.9914 30.3209 30.3706 31.6124L29.1157 33.0054L26.6999 33.4656ZM28.36 36.0145L27.3291 36.2108L27.5064 35.0666L28.5373 34.8698L28.36 36.0145ZM32.6075 22.8883L33.2116 23.8366L32.6075 24.7845L32.0034 23.8366L32.6075 22.8883ZM32.6075 30.0376C34.0576 30.1903 33.2161 32.5452 32.069 31.5224C32.0317 31.2996 31.8164 31.1413 31.8284 30.9023C31.8284 30.4256 32.178 30.0376 32.6075 30.0376Z" fill="#7A3DE2"/>
<path d="M33.3867 18.7984C34.4102 18.7792 34.4109 17.0882 33.3867 17.069H31.8286C30.8051 17.0882 30.8043 18.7791 31.8286 18.7984H33.3867Z" fill="#7A3DE2"/>
<path d="M33.3867 43.011H31.8286C30.8051 43.0302 30.8043 44.7212 31.8286 44.7404H33.3867C34.4102 44.7212 34.4109 43.0303 33.3867 43.011Z" fill="#7A3DE2"/>
<path d="M45.0727 31.7691V30.0397C45.0554 28.9035 43.5319 28.903 43.5146 30.0397V31.7691C43.5319 32.9051 45.0554 32.9059 45.0727 31.7691Z" fill="#7A3DE2"/>
<path d="M20.1431 30.0397V31.7691C20.1604 32.9053 21.6839 32.9057 21.7012 31.769V30.0397C21.6839 28.9036 20.1604 28.9029 20.1431 30.0397Z" fill="#7A3DE2"/>
</svg>
