<svg width="48" height="48" viewBox="0 0 48 48" fill="none" xmlns="http://www.w3.org/2000/svg">
<path fill-rule="evenodd" clip-rule="evenodd" d="M40.0684 46.8142C36.3491 46.8142 33.3228 43.7876 33.3228 40.0681C33.3228 36.3486 36.3492 33.322 40.0684 33.322C43.7875 33.322 46.8121 36.3486 46.8121 40.0681C46.8121 43.7876 43.7857 46.8142 40.0684 46.8142ZM40.0684 34.4175C36.9526 34.4175 34.4168 36.9518 34.4168 40.0695C34.4168 43.1855 36.951 45.7216 40.0684 45.7216C43.1842 45.7216 45.7181 43.1872 45.7181 40.0695C45.7181 36.9535 43.1839 34.4175 40.0684 34.4175Z" fill="#7A3DE2"/>
<path fill-rule="evenodd" clip-rule="evenodd" d="M38.3032 43.3346C38.1902 43.3346 38.0771 43.3 37.9823 43.2307C37.8128 43.1067 37.7289 42.8988 37.7654 42.6928L38.0644 41.0099L36.8338 39.8248C36.6824 39.6789 36.6277 39.4601 36.6934 39.2614C36.7572 39.0626 36.9304 38.9186 37.1382 38.8894L38.8301 38.6542L39.5776 37.1172C39.6688 36.9294 39.8602 36.809 40.0699 36.809C40.2795 36.809 40.471 36.9294 40.5621 37.1172L41.3096 38.6542L43.0015 38.8894C43.2094 38.9186 43.3807 39.0626 43.4464 39.2614C43.512 39.4601 43.4573 39.6789 43.306 39.8248L42.0754 41.0099L42.3744 42.6928C42.4108 42.8989 42.327 43.1085 42.1574 43.2307C41.9879 43.3547 41.7636 43.3693 41.5795 43.2708L40.0717 42.4667L38.5639 43.2708C38.4837 43.3146 38.3944 43.3346 38.3069 43.3346H38.3032ZM40.068 41.2998C40.1573 41.2998 40.2448 41.3217 40.3251 41.3636L41.0981 41.7757L40.9449 40.9132C40.9139 40.7346 40.9723 40.5504 41.1035 40.4246L41.7344 39.8174L40.8665 39.6971C40.686 39.6716 40.5292 39.5585 40.4508 39.3944L40.068 38.6068L39.6851 39.3944C39.6049 39.5585 39.4499 39.6716 39.2694 39.6971L38.4016 39.8174L39.0324 40.4246C39.1637 40.5504 39.2239 40.7346 39.1911 40.9132L39.0379 41.7757L39.8109 41.3636C39.8911 41.3199 39.9787 41.2998 40.068 41.2998Z" fill="#7A3DE2"/>
<path fill-rule="evenodd" clip-rule="evenodd" d="M23.9989 47.3332C19.9935 47.3332 16.0426 46.2994 12.5716 44.3466C12.433 44.2682 12.3346 44.1333 12.3036 43.9783C12.2726 43.8233 12.3109 43.6611 12.4075 43.5353C12.8687 42.9409 13.2005 42.2681 13.3975 41.5351C14.2051 38.5194 12.4093 35.4088 9.39564 34.6013C7.70193 34.1491 5.84776 34.5247 4.46606 35.5932C4.34026 35.6898 4.17983 35.7281 4.02303 35.6953C3.86807 35.6643 3.73315 35.5658 3.65476 35.4272C1.70033 31.9557 0.666626 28.0029 0.666626 23.999C0.666626 19.9951 1.69851 16.0421 3.65294 12.5707C3.73133 12.4322 3.86442 12.3337 4.02121 12.3027C4.17801 12.2717 4.33844 12.31 4.46424 12.4066C5.05857 12.8661 5.73131 13.1998 6.46426 13.3967C6.94555 13.5262 7.43963 13.5918 7.93371 13.5918C10.488 13.5918 12.7359 11.8651 13.3977 9.39456C13.8589 7.67337 13.498 5.87558 12.4059 4.4646C12.3093 4.33879 12.271 4.17652 12.3038 4.02154C12.3348 3.86656 12.4332 3.73163 12.5718 3.65323C16.0431 1.69866 19.9956 0.666687 23.9992 0.666687C28.0028 0.666687 31.9555 1.70048 35.4265 3.65323C35.5651 3.73163 35.6635 3.86473 35.6945 4.02154C35.7255 4.17652 35.6872 4.33879 35.5906 4.4646C35.1294 5.05897 34.7976 5.73177 34.6006 6.46477C34.2105 7.92523 34.4092 9.45132 35.1658 10.7605C35.9224 12.0696 37.1421 13.0068 38.6043 13.3987C40.298 13.8527 42.1522 13.4753 43.5339 12.4069C43.6597 12.3102 43.8219 12.2719 43.9769 12.3048C44.1319 12.3358 44.2668 12.4342 44.3452 12.5728C46.2996 16.0443 47.3333 19.9971 47.3333 24.001C47.3333 28.0068 46.2996 31.958 44.347 35.4293C44.2686 35.5679 44.1337 35.6663 43.9787 35.6973C43.8219 35.7301 43.6615 35.6918 43.5357 35.5934C42.9413 35.1321 42.2686 34.8003 41.5357 34.6033C41.0544 34.4739 40.5603 34.4082 40.0662 34.4082C37.5119 34.4082 35.264 36.1349 34.6022 38.6055C34.141 40.3267 34.502 42.1245 35.594 43.5354C35.6906 43.6612 35.7289 43.8235 35.6961 43.9785C35.6651 44.1335 35.5667 44.2684 35.4281 44.3468C31.9568 46.3014 28.0043 47.3334 24.0007 47.3334L23.9989 47.3332ZM13.6399 43.6829C16.8158 45.3567 20.3855 46.2392 23.9989 46.2392C27.6123 46.2392 31.1823 45.3567 34.3598 43.6811C33.348 42.0875 33.049 40.1676 33.543 38.3208C34.3325 35.3725 37.0143 33.3124 40.0646 33.3124C40.6535 33.3124 41.2442 33.3908 41.8167 33.544C42.4821 33.7226 43.1075 33.9961 43.6818 34.359C45.3554 31.1828 46.2379 27.6128 46.2379 23.9992C46.2379 20.3836 45.3555 16.8152 43.68 13.6356C42.1047 14.6293 40.1321 14.9374 38.3201 14.4524C36.5771 13.9857 35.1204 12.868 34.2179 11.3054C33.3155 9.74283 33.0766 7.92137 33.5434 6.18034C33.722 5.51483 33.9955 4.88946 34.3583 4.31511C31.1806 2.64134 27.6127 1.75883 23.9993 1.75883C20.3859 1.75883 16.8159 2.64129 13.6384 4.31693C14.6503 5.91051 14.9493 7.8304 14.4552 9.67725C13.6658 12.6255 10.9839 14.6856 7.93546 14.6856C7.34659 14.6856 6.7559 14.6072 6.18341 14.4541C5.51795 14.2754 4.89263 14.0019 4.31832 13.6391C2.64468 16.8152 1.76224 20.3852 1.76224 23.9989C1.76224 27.6145 2.64464 31.1828 4.32014 34.3624C5.89535 33.3687 7.8662 33.0588 9.68005 33.5456C13.2789 34.5101 15.4213 38.2207 14.4565 41.8199C14.2779 42.4854 14.0044 43.1108 13.6416 43.6852L13.6399 43.6829Z" fill="#7A3DE2"/>
<path fill-rule="evenodd" clip-rule="evenodd" d="M40.072 14.6864C39.4831 14.6864 38.8943 14.608 38.32 14.4548C36.577 13.9881 35.1203 12.8704 34.2178 11.3078C33.3154 9.74524 33.0766 7.92379 33.5433 6.18276C34.3327 3.23267 37.0146 1.17438 40.0649 1.17438C40.6537 1.17438 41.2444 1.25278 41.8169 1.40593C43.5599 1.8727 45.0166 2.99037 45.919 4.55295C46.8215 6.11554 47.0603 7.93699 46.5936 9.67802C45.8042 12.6263 43.1223 14.6864 40.072 14.6864ZM40.0647 2.26627C37.5105 2.26627 35.2626 3.99293 34.6007 6.46351C34.2088 7.92397 34.4093 9.45006 35.1659 10.7592C35.9225 12.0683 37.1422 13.0055 38.6044 13.3975C39.0857 13.5269 39.5797 13.5926 40.0738 13.5926C42.6299 13.5926 44.876 11.8659 45.5378 9.39534C45.9298 7.93488 45.7292 6.40879 44.9726 5.09966C44.2178 3.79053 42.9963 2.85336 41.5342 2.46137C41.0529 2.33192 40.5588 2.26627 40.0647 2.26627Z" fill="#7A3DE2"/>
<path fill-rule="evenodd" clip-rule="evenodd" d="M7.93326 46.826C7.34438 46.826 6.75551 46.7476 6.18121 46.5944C2.58413 45.6299 0.439987 41.9174 1.40471 38.3201C2.19414 35.3718 4.876 33.3117 7.9263 33.3117C8.51517 33.3117 9.10404 33.3901 9.67835 33.5433C13.2754 34.5078 15.4196 38.2184 14.4548 41.8176C13.6654 44.7677 10.9836 46.826 7.93326 46.826ZM7.92596 34.4058C5.3717 34.4058 3.1238 36.1325 2.46198 38.6031C1.65431 41.6188 3.45014 44.7294 6.46562 45.5369C6.94691 45.6663 7.44099 45.732 7.93506 45.732C10.4911 45.732 12.7372 44.0053 13.399 41.5329C14.2067 38.5172 12.4109 35.4066 9.39541 34.5991C8.91412 34.4697 8.42004 34.404 7.92596 34.404V34.4058Z" fill="#7A3DE2"/>
<path fill-rule="evenodd" clip-rule="evenodd" d="M34.9998 30.5349H12.9978C12.6951 30.5349 12.4508 30.2887 12.4508 29.9879V16.251C12.4508 14.9218 13.5319 13.8406 14.861 13.8406H20.2704C20.4491 13.8406 20.6168 13.9281 20.7189 14.0758C20.821 14.2235 20.8447 14.4113 20.7827 14.579L20.6879 14.8343L23.151 17.2975L28.3979 15.3429L27.831 14.7759C27.6742 14.6191 27.6286 14.3839 27.7124 14.1797C27.7963 13.9755 27.9969 13.8424 28.2174 13.8424H33.1326C34.4617 13.8424 35.5446 14.9236 35.5446 16.2528V29.9897C35.5446 30.2924 35.3003 30.5367 34.9976 30.5367L34.9998 30.5349ZM13.5448 29.4409H34.4528V16.251C34.4528 15.5254 33.8621 14.9328 33.1346 14.9328H29.5394L29.7764 15.168C29.9077 15.2993 29.9642 15.4889 29.9241 15.6712C29.884 15.8536 29.7545 16.0031 29.5813 16.0669L23.2058 18.4426C23.0035 18.5156 22.7792 18.4682 22.6279 18.3168L19.667 15.3558C19.554 15.2427 19.4975 15.0877 19.5084 14.9328H14.863C14.1374 14.9328 13.5449 15.5235 13.5449 16.251L13.5448 29.4409Z" fill="#7A3DE2"/>
<path fill-rule="evenodd" clip-rule="evenodd" d="M32.7212 28.2551H15.2754C14.9727 28.2551 14.7284 28.0089 14.7284 27.7081V16.6644C14.7284 16.3618 14.9727 16.1174 15.2754 16.1174H18.3583C18.5789 16.1174 18.7795 16.2505 18.8633 16.4547C18.9472 16.659 18.9016 16.8942 18.7448 17.0509L18.0192 17.7766C17.7585 18.0373 17.7585 18.4622 18.0192 18.7247L19.248 19.9554C19.5051 20.2125 19.959 20.2125 20.2161 19.9554L22.6263 17.545C22.681 17.4903 22.7485 17.4466 22.8214 17.4192L26.2197 16.1539C26.2799 16.1302 26.3455 16.1192 26.4112 16.1192H32.7195C33.0221 16.1192 33.2664 16.3635 33.2664 16.6662V27.708C33.2664 28.0107 33.0221 28.255 32.7195 28.255L32.7212 28.2551ZM15.8224 27.1611H32.1742V17.2115H26.5114L23.3172 18.4021L20.9908 20.7287C20.6553 21.0642 20.2105 21.2483 19.7328 21.2483C19.257 21.2483 18.8103 21.0642 18.4749 20.7287L17.2442 19.498C16.6226 18.8762 16.5642 17.9008 17.0656 17.2116H15.8203V27.1611L15.8224 27.1611Z" fill="#7A3DE2"/>
<path fill-rule="evenodd" clip-rule="evenodd" d="M34.8428 34.1587H13.1545C11.8545 34.1587 10.7971 33.1012 10.7971 31.7994V29.987C10.7971 29.6843 11.0414 29.44 11.3441 29.44H36.6547C36.9574 29.44 37.2017 29.6861 37.2017 29.987V31.7994C37.2017 33.0994 36.1443 34.1569 34.8443 34.1569L34.8428 34.1587ZM11.891 30.5358V31.7994C11.891 32.4977 12.458 33.0629 13.1563 33.0629H34.8428C35.5392 33.0629 36.1062 32.4959 36.1062 31.7994V30.5358H11.8891H11.891Z" fill="#7A3DE2"/>
<path fill-rule="evenodd" clip-rule="evenodd" d="M38.3871 11.3875C37.5448 11.3875 36.8794 10.7256 36.8739 9.87961V5.9832C36.8812 5.13355 37.5448 4.47168 38.3853 4.47168C38.6497 4.47168 38.9122 4.54097 39.1401 4.67406L42.5093 6.61954C42.976 6.88756 43.2641 7.39077 43.2641 7.92867C43.2641 8.46834 42.9742 8.96979 42.5093 9.2378L39.1401 11.1833C38.9122 11.3146 38.6515 11.3857 38.3889 11.3857L38.3871 11.3875ZM38.3835 5.56741C38.1519 5.56741 37.9678 5.75339 37.966 5.99041V9.87585C37.9696 10.2423 38.3488 10.3791 38.5913 10.2387L41.9605 8.29321C42.0881 8.21846 42.1684 8.07989 42.1684 7.93038C42.1684 7.78087 42.0881 7.6423 41.9605 7.56754L38.5913 5.62207C38.5275 5.58561 38.4582 5.56741 38.3835 5.56741Z" fill="#7A3DE2"/>
<path fill-rule="evenodd" clip-rule="evenodd" d="M7.92954 14.6732C4.21028 14.6732 1.18579 11.6465 1.18579 7.92891C1.18579 4.20936 4.21224 1.18463 7.92954 1.18463C11.6488 1.18463 14.6733 4.21132 14.6733 7.92891C14.6733 11.6485 11.6468 14.6732 7.92954 14.6732ZM7.92954 2.27639C4.81376 2.27639 2.27793 4.81078 2.27793 7.92844C2.27793 11.0445 4.81213 13.5805 7.92954 13.5805C11.0453 13.5805 13.5812 11.0461 13.5812 7.92844C13.5812 4.81242 11.0451 2.27639 7.92954 2.27639Z" fill="#7A3DE2"/>
<path fill-rule="evenodd" clip-rule="evenodd" d="M7.92951 14.6723C6.05714 14.6723 4.31783 13.9229 3.03073 12.5628C2.83748 12.3586 2.83018 12.0431 3.0125 11.8298C4.24676 10.3931 6.03895 9.56891 7.92948 9.56891C9.8201 9.56891 11.6122 10.393 12.8446 11.8298C13.0269 12.0431 13.0196 12.3586 12.8264 12.5628C11.5392 13.923 9.79991 14.6723 7.92758 14.6723H7.92951ZM4.19569 12.1707C5.22757 13.0824 6.53478 13.5783 7.92951 13.5783C9.32423 13.5783 10.6314 13.0824 11.6633 12.1707C10.6643 11.208 9.32969 10.6647 7.92951 10.6647C6.52932 10.6647 5.19476 11.208 4.19569 12.1707Z" fill="#7A3DE2"/>
<path fill-rule="evenodd" clip-rule="evenodd" d="M7.92958 10.6639C6.33431 10.6639 5.03442 9.36573 5.03442 7.77033C5.03442 6.17493 6.33249 4.87677 7.92958 4.87677C9.52486 4.87677 10.8229 6.17493 10.8229 7.77033C10.8229 9.36573 9.52486 10.6639 7.92958 10.6639ZM7.92958 5.96872C6.93597 5.96872 6.12829 6.77645 6.12829 7.76833C6.12829 8.7602 6.93597 9.56794 7.92958 9.56794C8.92138 9.56794 9.72905 8.7602 9.72905 7.76833C9.72905 6.77645 8.92138 5.96872 7.92958 5.96872Z" fill="#7A3DE2"/>
<path fill-rule="evenodd" clip-rule="evenodd" d="M5.49558 43.0529C5.3552 43.0529 5.21664 43 5.10908 42.8925C4.89577 42.6791 4.89577 42.3327 5.10908 42.1194L9.97892 37.2511C10.1922 37.0377 10.5386 37.0377 10.7519 37.2511C10.9652 37.4644 10.9652 37.8108 10.7519 38.0241L5.88207 42.8925C5.77451 43 5.63597 43.0529 5.49558 43.0529Z" fill="#7A3DE2"/>
<path fill-rule="evenodd" clip-rule="evenodd" d="M9.80948 41.6147C9.80948 42.5865 8.35095 42.5865 8.35095 41.6147C8.35095 40.6429 9.80948 40.6429 9.80948 41.6147Z" fill="#7A3DE2"/>
<path fill-rule="evenodd" clip-rule="evenodd" d="M7.22232 38.8161C7.22232 39.7879 5.76379 39.7879 5.76379 38.8161C5.76379 37.8425 7.22232 37.8425 7.22232 38.8161Z" fill="#7A3DE2"/>
<path fill-rule="evenodd" clip-rule="evenodd" d="M19.7345 21.2508C19.2586 21.2508 18.8119 21.0667 18.4765 20.7312L17.2459 19.5005C16.5585 18.8131 16.5585 17.6936 17.2459 17.0062L19.667 14.5848C19.873 14.3788 20.2359 14.3788 20.44 14.5848L23.4008 17.5459C23.6141 17.7592 23.6141 18.1056 23.4008 18.3189L20.9906 20.7294C20.6551 21.0648 20.2103 21.249 19.7326 21.249L19.7345 21.2508ZM20.0535 15.7463L18.0189 17.7793C17.7581 18.04 17.7581 18.4648 18.0189 18.7274L19.2477 19.9581C19.5047 20.2152 19.9587 20.2152 20.2157 19.9581L22.2394 17.9342L20.0516 15.7463H20.0535Z" fill="#7A3DE2"/>
<path fill-rule="evenodd" clip-rule="evenodd" d="M23.0144 18.4743C22.8722 18.4743 22.7318 18.4178 22.6279 18.3138L19.6671 15.3528C19.5157 15.2014 19.4665 14.9754 19.5413 14.7748L21.9168 8.40065C21.9825 8.22562 22.1301 8.09617 22.3124 8.05787C22.4948 8.01958 22.6844 8.07428 22.8156 8.20556L29.7764 15.1669C29.9077 15.2982 29.9642 15.4878 29.9241 15.6701C29.884 15.8524 29.7545 16.0019 29.5813 16.0658L23.2077 18.4415C23.1457 18.4652 23.0819 18.4761 23.0163 18.4761L23.0144 18.4743ZM20.688 14.8277L23.1511 17.2909L28.3981 15.3364L22.6424 9.58024L20.688 14.8277Z" fill="#7A3DE2"/>
<path fill-rule="evenodd" clip-rule="evenodd" d="M27.3589 14.0699C27.213 14.0699 27.0744 14.0134 26.9724 13.9095L24.0717 11.0086C23.9678 10.9047 23.9095 10.7643 23.9113 10.6185C23.9131 10.4726 23.9715 10.3322 24.0772 10.2301C24.564 9.75787 25.2076 9.49713 25.8858 9.49713C26.5804 9.49713 27.2331 9.76698 27.7235 10.2574C28.7208 11.2548 28.7336 12.8921 27.7509 13.904C27.6488 14.0098 27.5084 14.07 27.3625 14.07L27.3589 14.0699ZM25.3115 10.7023L27.275 12.666C27.4974 12.1208 27.388 11.4681 26.9486 11.0287C26.5238 10.6039 25.8511 10.478 25.3115 10.7005L25.3115 10.7023Z" fill="#7A3DE2"/>
<path fill-rule="evenodd" clip-rule="evenodd" d="M25.2115 23.782C25.1112 23.782 25.011 23.7546 24.9198 23.6981L20.3127 20.8045C20.1723 20.717 20.0793 20.5675 20.0593 20.4034C20.041 20.2375 20.0976 20.0734 20.2161 19.9549L22.0447 18.1243C22.2252 17.9438 22.506 17.911 22.7229 18.0477L27.33 20.9413C27.4704 21.0288 27.5634 21.1783 27.5816 21.3424C27.5998 21.5083 27.5433 21.6724 27.4248 21.7909L25.5944 23.6215C25.4886 23.7273 25.3482 23.782 25.2079 23.782H25.2115ZM21.4777 20.2448L25.1349 22.5403L26.1705 21.5047L22.5133 19.2091L21.4777 20.2448Z" fill="#7A3DE2"/>
<path fill-rule="evenodd" clip-rule="evenodd" d="M28.4712 10.1564C28.3308 10.1564 28.1904 10.1035 28.0847 9.99593C27.8714 9.78261 27.8714 9.43619 28.0847 9.22288L29.8604 7.44698C30.0737 7.23366 30.4201 7.23366 30.6334 7.44698C30.8467 7.66031 30.8467 8.00673 30.6334 8.22004L28.8577 9.99593C28.7519 10.1035 28.6116 10.1564 28.4712 10.1564Z" fill="#7A3DE2"/>
<path fill-rule="evenodd" clip-rule="evenodd" d="M27.3282 9.01147C27.0256 9.01147 26.7812 8.76715 26.7812 8.46447V5.95197C26.7812 5.6493 27.0274 5.40497 27.3282 5.40497C27.629 5.40497 27.8752 5.64929 27.8752 5.95197V8.46447C27.8752 8.76714 27.629 9.01147 27.3282 9.01147Z" fill="#7A3DE2"/>
<path fill-rule="evenodd" clip-rule="evenodd" d="M32.1247 11.2988H29.6124C29.3097 11.2988 29.0654 11.0545 29.0654 10.7518C29.0654 10.4492 29.3116 10.2048 29.6124 10.2048H32.1247C32.4273 10.2048 32.6716 10.4492 32.6716 10.7518C32.6716 11.0545 32.4273 11.2988 32.1247 11.2988Z" fill="#7A3DE2"/>
<path fill-rule="evenodd" clip-rule="evenodd" d="M23.5649 24.6112H19.5649C19.2623 24.6112 19.0179 24.365 19.0179 24.0642C19.0179 23.7615 19.2622 23.5172 19.5649 23.5172H23.5649C23.8675 23.5172 24.1119 23.7615 24.1119 24.0642C24.1119 24.3668 23.8676 24.6112 23.5649 24.6112ZM17.6925 24.6112H16.9432C16.6406 24.6112 16.3962 24.365 16.3962 24.0642C16.3962 23.7615 16.6405 23.5172 16.9432 23.5172H17.6925C17.9952 23.5172 18.2395 23.7615 18.2395 24.0642C18.2395 24.3668 17.9952 24.6112 17.6925 24.6112Z" fill="#7A3DE2"/>
<path fill-rule="evenodd" clip-rule="evenodd" d="M23.5649 26.6316H22.8174C22.5148 26.6316 22.2704 26.3855 22.2704 26.0846C22.2704 25.7838 22.5147 25.5376 22.8174 25.5376H23.5649C23.8676 25.5376 24.1119 25.7837 24.1119 26.0846C24.1119 26.3854 23.8676 26.6316 23.5649 26.6316ZM20.945 26.6316H16.945C16.6424 26.6316 16.3981 26.3855 16.3981 26.0846C16.3981 25.7838 16.6424 25.5376 16.945 25.5376H20.945C21.2477 25.5376 21.492 25.7837 21.492 26.0846C21.492 26.3854 21.2477 26.6316 20.945 26.6316Z" fill="#7A3DE2"/>
</svg>
